<?xml version="1.0" encoding="utf-8"?>
<!-- Generator: Adobe Illustrator 16.0.0, SVG Export Plug-In . SVG Version: 6.00 Build 0)  -->
<!DOCTYPE svg PUBLIC "-//W3C//DTD SVG 1.1//EN" "http://www.w3.org/Graphics/SVG/1.1/DTD/svg11.dtd">
<svg version="1.1" id="Capa_1" xmlns="http://www.w3.org/2000/svg" xmlns:xlink="http://www.w3.org/1999/xlink" x="0px" y="0px"
	 width="52.667px" height="43.667px" viewBox="3.167 -26.5 52.667 43.667" enable-background="new 3.167 -26.5 52.667 43.667"
	 xml:space="preserve">
<g>
	<g>
		<g>
			<path fill="#333333" d="M48.291,5.12h-4.345V-7.912h4.345c1.597,0,2.896,1.299,2.896,2.896v7.24
				C51.187,3.82,49.888,5.12,48.291,5.12z M46.842,2.224h1.45l-0.001-7.24h-1.449V2.224z"/>
		</g>
		<g>
			<circle fill="#333333" cx="37.429" cy="-1.396" r="2.172"/>
		</g>
		<g>
			<circle fill="#333333" cx="27.294" cy="-1.396" r="2.172"/>
		</g>
		<g>
			<path fill="#333333" d="M43.946,9.463H33.085V6.567h10.861c1.598,0,2.896-1.299,2.896-2.896h2.896
				C49.738,6.866,47.139,9.463,43.946,9.463z"/>
		</g>
		<g>
			<circle fill="#333333" cx="33.085" cy="7.292" r="2.171"/>
		</g>
		<g>
			<path fill="#333333" d="M19.329-3.975h-2.896v-2.489c0-8.783,7.146-15.928,15.93-15.928c8.782,0,15.929,7.146,15.929,15.928
				h-2.896c0-7.186-5.848-13.032-13.032-13.032c-7.186,0-13.033,5.846-13.033,13.032V-3.975z"/>
		</g>
		<g>
			<path fill="#333333" d="M32.362,15.256c-6.521,0-12.271-4.44-13.969-10.669c-2.043-0.925-3.408-2.978-3.408-5.259
				c0-2.096,1.251-4.143,2.986-5.082c0.157-0.818,0.516-1.51,1.071-2.063c1.59-1.583,4.328-1.581,7.226-1.56
				c2.985,0.005,6.061,0.025,7.671-1.578c0.888-0.884,1.317-2.256,1.317-4.197h2.896c0,2.712-0.73,4.815-2.17,6.249
				c-2.464,2.453-6.322,2.429-9.728,2.422c-2.074-0.016-4.433-0.019-5.169,0.716c-0.132,0.132-0.31,0.38-0.31,1.015v1.11
				l-1.072,0.288c-0.863,0.231-1.823,1.389-1.823,2.68c0,1.285,0.873,2.425,2.124,2.771l0.846,0.236l0.183,0.858
				c1.129,5.311,5.893,9.166,11.328,9.166c3.8,0,7.361-1.872,9.525-5.007l2.384,1.646C41.568,12.917,37.115,15.256,32.362,15.256z"
				/>
		</g>
		<g>
			<path fill="#333333" d="M44.086-6.25c-0.197-0.13-0.979-0.24-1.497-0.313c-2.562-0.36-7.332-1.03-7.332-8.59h2.896
				c0,5.042,2.351,5.372,4.839,5.722c1.533,0.215,3.85,0.541,3.85,2.966h-2.894C43.963-6.392,44.029-6.287,44.086-6.25z"/>
		</g>
	</g>
	<g>
		<g>
			<g>
				<path fill="#FF6600" stroke="#FFFFFF" stroke-miterlimit="10" d="M29.69-13.367c0,5.882-4.768,10.652-10.653,10.652
					c-5.884,0-10.656-4.77-10.656-10.652c0-5.886,4.772-10.656,10.656-10.656C24.923-24.022,29.69-19.252,29.69-13.367z"/>
				<path fill="#FFFFFF" stroke="#FFFFFF" stroke-miterlimit="10" d="M19.037-2.148c-6.188,0-11.223-5.032-11.223-11.219
					c0-6.188,5.034-11.223,11.223-11.223c6.187,0,11.221,5.034,11.221,11.223C30.258-7.18,25.224-2.148,19.037-2.148z
					 M19.037-23.455c-5.563,0-10.089,4.526-10.089,10.088c0,5.561,4.526,10.084,10.089,10.084s10.087-4.524,10.087-10.084
					C29.124-18.929,24.6-23.455,19.037-23.455z"/>
			</g>
		</g>
		<path fill="#FFFFFF" d="M19.031-19.027c-3.124,0-5.652,2.53-5.652,5.658c0,3.129,2.528,5.658,5.652,5.658
			c3.123,0,5.664-2.529,5.664-5.658C24.695-16.497,22.159-19.027,19.031-19.027z M19.037-8.842c-2.502,0-4.526-2.025-4.526-4.527
			c0-2.5,2.024-4.526,4.526-4.526c2.5,0,4.526,2.026,4.526,4.526C23.563-10.867,21.537-8.842,19.037-8.842z M19.603-14.533
			l0.599,0.6l0.6-0.6l0.6,0.6l0.602-0.6l-1.201-1.2L19.603-14.533z M17.271-14.533l0.6,0.6l0.6-0.6l-1.199-1.2l-1.198,1.2l0.6,0.6
			L17.271-14.533z M19.037-10.256c1.317,0,2.438-0.826,2.89-1.981h-5.781C16.599-11.082,17.718-10.256,19.037-10.256z"/>
	</g>
</g>
</svg>
