<?xml version="1.0" encoding="utf-8"?>
<!-- Generator: Adobe Illustrator 16.0.0, SVG Export Plug-In . SVG Version: 6.00 Build 0)  -->
<!DOCTYPE svg PUBLIC "-//W3C//DTD SVG 1.1//EN" "http://www.w3.org/Graphics/SVG/1.1/DTD/svg11.dtd">
<svg version="1.1" id="Capa_1" xmlns="http://www.w3.org/2000/svg" xmlns:xlink="http://www.w3.org/1999/xlink" x="0px" y="0px"
	 width="52.667px" height="43.667px" viewBox="3.167 -26.5 52.667 43.667" enable-background="new 3.167 -26.5 52.667 43.667"
	 xml:space="preserve">
<path fill="#333333" d="M29.5-21.656c-6.574,0-11.892,5.318-11.892,11.893c0,8.92,11.892,22.087,11.892,22.087
	S41.393-0.844,41.393-9.764C41.393-16.338,36.075-21.656,29.5-21.656z M29.5-5.517c-2.344,0-4.248-1.902-4.248-4.247
	c0-2.344,1.904-4.247,4.248-4.247s4.246,1.903,4.246,4.247C33.746-7.419,31.844-5.517,29.5-5.517z"/>
<g>
	<g>
		<g>
			<circle fill="#FF6600" cx="16.027" cy="-15.789" r="5.572"/>
			<path fill="#FFFFFF" d="M16.026-9.921c-3.235,0-5.868-2.632-5.868-5.867s2.633-5.868,5.868-5.868s5.868,2.632,5.868,5.868
				S19.262-9.921,16.026-9.921z M16.026-21.063c-2.909,0-5.275,2.366-5.275,5.274s2.366,5.274,5.275,5.274s5.274-2.366,5.274-5.274
				S18.936-21.063,16.026-21.063z"/>
		</g>
	</g>
	<circle fill="#FFFFFF" cx="16.027" cy="-15.789" r="2.427"/>
</g>
<g>
	<g>
		<g>
			<circle fill="#FF6600" cx="39.365" cy="1.831" r="5.225"/>
			<path fill="#FFFFFF" d="M39.365,7.333c-3.035,0-5.504-2.468-5.504-5.502c0-3.035,2.469-5.503,5.504-5.503
				c3.034,0,5.503,2.469,5.503,5.503C44.868,4.865,42.399,7.333,39.365,7.333z M39.365-3.116c-2.728,0-4.947,2.219-4.947,4.947
				s2.22,4.946,4.947,4.946c2.729,0,4.946-2.219,4.946-4.946S42.094-3.116,39.365-3.116z"/>
		</g>
	</g>
	<circle fill="#FFFFFF" cx="39.365" cy="1.831" r="2.276"/>
</g>
<rect x="12.179" y="12.156" fill="#333333" width="34.644" height="0.334"/>
</svg>
