<?xml version="1.0" encoding="utf-8"?>
<!-- Generator: Adobe Illustrator 16.0.0, SVG Export Plug-In . SVG Version: 6.00 Build 0)  -->
<!DOCTYPE svg PUBLIC "-//W3C//DTD SVG 1.1//EN" "http://www.w3.org/Graphics/SVG/1.1/DTD/svg11.dtd">
<svg version="1.1" id="Capa_1" xmlns="http://www.w3.org/2000/svg" xmlns:xlink="http://www.w3.org/1999/xlink" x="0px" y="0px"
	 width="52.667px" height="43.667px" viewBox="3.167 -26.5 52.667 43.667" enable-background="new 3.167 -26.5 52.667 43.667"
	 xml:space="preserve">
<path fill="#333333" d="M26.959-6.348h-3.363v3.362h3.363V-6.348z M33.682-6.348H30.32v3.362h3.361V-6.348z M40.406-6.348h-3.363
	v3.362h3.363V-6.348z M43.768-18.114h-1.682v-3.362h-3.361v3.362H25.277v-3.362h-3.361v3.362h-1.682
	c-1.865,0-3.346,1.512-3.346,3.362L16.873,8.781c0,1.848,1.496,3.362,3.361,3.362h23.533c1.848,0,3.361-1.514,3.361-3.362v-23.533
	C47.129-16.602,45.615-18.114,43.768-18.114z M43.768,8.781H20.234v-18.49h23.533V8.781z"/>
<circle fill="#FF6600" stroke="#FFFFFF" stroke-width="0.9" stroke-miterlimit="10" cx="18.865" cy="-13.689" r="11.459"/>
<g>
	<path fill="#FFFFFF" d="M15.583-20.437h7.716l-0.401,1.847c-0.781,1.012-1.497,2.065-2.148,3.163
		c-0.653,1.096-1.259,2.255-1.819,3.473c-0.402,0.854-0.762,1.698-1.079,2.533c-0.316,0.834-0.579,1.661-0.785,2.477h-2.634
		c0.378-1.34,0.896-2.684,1.555-4.031c0.658-1.347,1.457-2.794,2.395-4.342c0.171-0.256,0.336-0.505,0.493-0.75
		c0.159-0.244,0.335-0.506,0.531-0.786c0.195-0.28,0.399-0.561,0.611-0.841c0.215-0.28,0.419-0.524,0.613-0.731h-5.466
		L15.583-20.437z"/>
</g>
</svg>
