<?xml version="1.0" encoding="utf-8"?>
<!-- Generator: Adobe Illustrator 16.0.0, SVG Export Plug-In . SVG Version: 6.00 Build 0)  -->
<!DOCTYPE svg PUBLIC "-//W3C//DTD SVG 1.1//EN" "http://www.w3.org/Graphics/SVG/1.1/DTD/svg11.dtd">
<svg version="1.1" id="Capa_1" xmlns="http://www.w3.org/2000/svg" xmlns:xlink="http://www.w3.org/1999/xlink" x="0px" y="0px"
	 width="52.667px" height="43.667px" viewBox="3.167 -26.5 52.667 43.667" enable-background="new 3.167 -26.5 52.667 43.667"
	 xml:space="preserve">
<path fill="#FF6600" d="M374.512,119.369c-10.177,0-18.456,8.279-18.456,18.458c0,10.178,8.279,18.457,18.456,18.457
	c10.18,0,18.46-8.279,18.46-18.457C392.972,127.648,384.691,119.369,374.512,119.369z M374.512,154.308
	c-9.086,0-16.479-7.395-16.479-16.48c0-9.087,7.393-16.481,16.479-16.481c9.088,0,16.482,7.395,16.482,16.481
	C390.994,146.913,383.6,154.308,374.512,154.308z"/>
<path fill="none" d="M253.236-108.418h24v24h-24V-108.418z"/>
<path d="M256.236-96.418c0,2.209,0.91,4.2,2.36,5.641l-2.36,2.359h6v-6l-2.24,2.24c-1.079-1.09-1.76-2.58-1.76-4.241
	c0-2.61,1.67-4.83,4-5.65v-2.09C258.786-103.268,256.236-100.148,256.236-96.418z M264.236-91.417h2v-2h-2V-91.417z
	 M274.236-104.418h-6v6l2.24-2.24c1.08,1.09,1.76,2.58,1.76,4.24c0,2.61-1.67,4.831-4,5.651v2.09c3.45-0.891,6-4.01,6-7.741
	c0-2.21-0.91-4.2-2.359-5.64L274.236-104.418z M264.236-95.417h2v-6h-2V-95.417z"/>
<path fill="none" d="M238.903-76.167h24v24h-24V-76.167z"/>
<path d="M250.903-75.167c-4.97,0-9,4.03-9,9v7c0,1.66,1.34,3,3,3h3v-8h-4v-2c0-3.871,3.13-7,7-7s7,3.129,7,7v2h-4v8h4v1h-7v2h6
	c1.66,0,3-1.34,3-3v-10C259.903-71.138,255.874-75.167,250.903-75.167z"/>
<path fill="#FF6600" d="M276.82-80.269c-3.87,0-7,3.13-7,7c0,5.25,7,13,7,13s7-7.75,7-13C283.82-77.139,280.69-80.269,276.82-80.269
	z M276.82-70.769c-1.38,0-2.5-1.12-2.5-2.5s1.12-2.5,2.5-2.5s2.5,1.12,2.5,2.5S278.2-70.769,276.82-70.769z"/>
<path d="M231.57-81.083h2v-1h1c0.55,0,1-0.451,1-1v-3c0-0.55-0.45-1-1-1h-3v-1h4v-2h-2v-1h-2v1h-1c-0.55,0-1,0.45-1,1v3
	c0,0.55,0.45,1,1,1h3v1h-4v2h2V-81.083z M240.57-94.084h-16c-1.11,0-1.99,0.89-1.99,2l-0.01,12c0,1.109,0.89,2,2,2h16
	c1.109,0,2-0.891,2-2v-12C242.57-93.194,241.68-94.084,240.57-94.084z M240.57-80.083h-16v-12h16V-80.083z"/>
<path fill="#FF6600" d="M260.837-22.786h1.199v-0.601h0.601c0.33,0,0.6-0.271,0.6-0.6v-1.801c0-0.33-0.27-0.6-0.6-0.6h-1.8v-0.6
	h2.399v-1.2h-1.2v-0.601h-1.199v0.601h-0.601c-0.33,0-0.6,0.27-0.6,0.6v1.8c0,0.33,0.27,0.601,0.6,0.601h1.8v0.6h-2.399v1.2h1.2
	V-22.786z M266.236-30.587h-9.6c-0.666,0-1.194,0.534-1.194,1.2l-0.006,7.2c0,0.666,0.534,1.2,1.2,1.2h9.6
	c0.666,0,1.2-0.534,1.2-1.2v-7.2C267.437-30.053,266.902-30.587,266.236-30.587z M266.236-22.187h-9.6v-7.2h9.6V-22.187z"/>
<path fill="#FF6600" d="M256.162-38.673l-0.883-1.066c-0.171-0.215-0.431-0.349-0.729-0.349h-7.611
	c-0.299,0-0.559,0.134-0.736,0.349l-0.875,1.066c-0.184,0.215-0.292,0.501-0.292,0.806v7.929c0,0.697,0.57,1.269,1.269,1.269h8.88
	c0.697,0,1.269-0.571,1.269-1.269v-7.929C256.453-38.172,256.346-38.458,256.162-38.673z M250.744-30.89l-3.488-3.489h2.221v-1.269
	h2.537v1.269h2.22L250.744-30.89z M246.381-38.819l0.514-0.634h7.611l0.596,0.634H246.381z"/>
<path d="M320.403-62.917h-16v2h16V-62.917z M321.403-52.917v-2l-1-5h-16l-1,5v2h1v6h10v-6h4v6h2v-6H321.403z M312.403-48.917h-6v-4
	h6V-48.917z"/>
<path d="M307.153-85.084h-2v2h2V-85.084z M311.153-85.084h-2v2h2V-85.084z M315.153-85.084h-2v2h2V-85.084z M317.153-92.084h-1v-2
	h-2v2h-8v-2h-2v2h-1c-1.11,0-1.99,0.899-1.99,2l-0.01,14c0,1.1,0.89,2,2,2h14c1.1,0,2-0.9,2-2v-14
	C319.153-91.185,318.253-92.084,317.153-92.084z M317.153-76.084h-14v-11h14V-76.084z"/>
<path d="M338.153-74.085l-1.41,1.41l5.58,5.59h-12.17v2h12.17l-5.58,5.59l1.41,1.41l8-8L338.153-74.085z"/>
<path d="M322.276-35.688l-1.39-1.681c-0.271-0.34-0.68-0.549-1.15-0.549h-12c-0.47,0-0.88,0.209-1.16,0.549l-1.38,1.681
	c-0.29,0.34-0.46,0.79-0.46,1.271v12.5c0,1.1,0.899,2,2,2h14c1.1,0,2-0.9,2-2v-12.5C322.736-34.897,322.566-35.348,322.276-35.688z
	 M313.736-23.417l-5.5-5.5h3.5v-2h4v2h3.5L313.736-23.417z M306.856-35.917l0.811-1h11.999l0.94,1H306.856z"/>
<path fill="none" d="M326.153-68.417h24v24h-24V-68.417z"/>
<circle fill="#FF6600" cx="326.153" cy="28.666" r="19.866"/>
<circle fill="none" stroke="#FF6600" stroke-miterlimit="10" cx="355.521" cy="168.264" r="21.75"/>
<path fill="#333333" d="M235.903-59.376h-3v-4h-14c-1.102,0-2,0.9-2,2v11h2c0,1.66,1.34,3,3,3s3-1.34,3-3h6c0,1.66,1.34,3,3,3
	s3-1.34,3-3h2v-5L235.903-59.376z M221.903-48.876c-0.83,0-1.5-0.67-1.5-1.5s0.67-1.5,1.5-1.5s1.5,0.67,1.5,1.5
	S222.733-48.876,221.903-48.876z M235.403-57.876l1.959,2.5h-4.459v-2.5H235.403z M233.903-48.876c-0.83,0-1.5-0.67-1.5-1.5
	s0.67-1.5,1.5-1.5s1.5,0.67,1.5,1.5S234.733-48.876,233.903-48.876z"/>
<path fill="#333333" d="M418.467,182.433h-3v-4h-14c-1.102,0-2,0.9-2,2v11h2c0,1.66,1.34,3,3,3s3-1.34,3-3h6c0,1.66,1.34,3,3,3
	s3-1.34,3-3h2v-5L418.467,182.433z M404.467,192.933c-0.83,0-1.5-0.67-1.5-1.5s0.67-1.5,1.5-1.5s1.5,0.67,1.5,1.5
	S405.297,192.933,404.467,192.933z M417.967,183.933l1.959,2.5h-4.459v-2.5H417.967z M416.467,192.933c-0.83,0-1.5-0.67-1.5-1.5
	s0.67-1.5,1.5-1.5s1.5,0.67,1.5,1.5S417.297,192.933,416.467,192.933z"/>
<path fill="#FF6600" stroke="#FFFFFF" stroke-width="0.4" stroke-miterlimit="10" d="M403.834,169.129h-4.631v1.544h4.631V169.129z
	 M400.748,179.163h1.543v-4.631h-1.543V179.163z M406.945,174.062l1.096-1.096c-0.332-0.395-0.695-0.765-1.088-1.089l-1.096,1.096
	c-1.197-0.957-2.701-1.528-4.338-1.528c-3.836,0-6.947,3.11-6.947,6.947s3.104,6.946,6.947,6.946s6.947-3.109,6.947-6.946
	C408.467,176.755,407.895,175.25,406.945,174.062z M401.52,183.794c-2.988,0-5.402-2.415-5.402-5.402s2.414-5.403,5.402-5.403
	c2.986,0,5.402,2.416,5.402,5.403S404.506,183.794,401.52,183.794z"/>
<g>
	<polygon fill="#333333" points="53.622,13.688 48.985,13.688 48.985,11.37 51.303,11.37 51.303,4.601 49.308,-1.384 40.868,-1.384 
		40.868,11.37 42.029,11.37 42.029,13.688 38.551,13.688 38.551,-3.703 50.979,-3.703 53.622,4.225 	"/>
	<path fill="#333333" d="M45.508,17.167c-2.56,0-4.64-2.08-4.64-4.639c0-2.557,2.08-4.637,4.64-4.637
		c2.557,0,4.636,2.08,4.636,4.637C50.144,15.087,48.064,17.167,45.508,17.167z M45.508,10.21c-1.28,0-2.32,1.041-2.32,2.318
		c0,1.279,1.04,2.319,2.32,2.319c1.276,0,2.316-1.04,2.316-2.319C47.824,11.25,46.784,10.21,45.508,10.21z"/>
	<polygon fill="#333333" points="23.479,13.688 18.84,13.688 18.84,5.572 21.157,5.572 21.157,11.37 23.479,11.37 	"/>
	<polygon fill="#333333" points="40.868,13.688 30.434,13.688 30.434,11.37 38.551,11.37 38.551,-6.022 16.521,-6.022 
		16.521,-8.341 40.868,-8.341 	"/>
	<path fill="#333333" d="M26.956,17.167c-2.557,0-4.637-2.08-4.637-4.639c0-2.557,2.08-4.637,4.637-4.637s4.638,2.08,4.638,4.637
		C31.594,15.087,29.513,17.167,26.956,17.167z M26.956,10.21c-1.279,0-2.32,1.041-2.32,2.318c0,1.279,1.041,2.319,2.32,2.319
		c1.277,0,2.319-1.04,2.319-2.319C29.275,11.25,28.233,10.21,26.956,10.21z"/>
	<rect x="17.68" y="-3.703" fill="#333333" width="10.436" height="2.319"/>
	<rect x="18.84" y="0.935" fill="#333333" width="6.958" height="2.319"/>
	<circle fill="#FFFFFF" cx="15.62" cy="-7.194" r="8.458"/>
	<rect x="14.393" y="-14.122" fill="#FF6600" width="2.983" height="7.489"/>
	<rect x="12.138" y="-22.01" fill="#FF6600" width="7.49" height="2.984"/>
	<path fill="#FF6600" d="M24.29-14.413l1.607-1.609l-0.214-0.256c-0.525-0.622-1.075-1.172-1.637-1.635l-0.253-0.211l-1.608,1.607
		c-1.839-1.383-4.009-2.111-6.301-2.111c-5.793,0-10.506,4.712-10.506,10.506c0,5.793,4.713,10.504,10.506,10.504
		c5.794,0,10.507-4.711,10.507-10.504C26.392-10.415,25.663-12.582,24.29-14.413z M15.885-0.604c-4.148,0-7.52-3.373-7.52-7.521
		c0-4.148,3.372-7.522,7.52-7.522c4.146,0,7.521,3.374,7.521,7.522C23.405-3.977,20.03-0.604,15.885-0.604z"/>
</g>
<rect x="21.866" y="54.5" fill="#333333" width="68.115" height="0.906"/>
</svg>
