<?xml version="1.0" encoding="utf-8"?>
<!-- Generator: Adobe Illustrator 16.0.0, SVG Export Plug-In . SVG Version: 6.00 Build 0)  -->
<!DOCTYPE svg PUBLIC "-//W3C//DTD SVG 1.1//EN" "http://www.w3.org/Graphics/SVG/1.1/DTD/svg11.dtd">
<svg version="1.1" id="Capa_1" xmlns="http://www.w3.org/2000/svg" xmlns:xlink="http://www.w3.org/1999/xlink" x="0px" y="0px"
	 width="52.667px" height="43.667px" viewBox="3.167 -26.5 52.667 43.667" enable-background="new 3.167 -26.5 52.667 43.667"
	 xml:space="preserve">
<g>
	<g>
		<path fill="#333333" d="M48.252-6.851L35.227-7.975L30.135-19.97L25.043-7.956L12.014-6.851l9.895,8.572l-2.973,12.736
			l11.199-6.76l11.195,6.76L38.377,1.722L48.252-6.851z M30.135,4.312L23.32,8.424l1.813-7.754l-6.018-5.22l7.938-0.688l3.082-7.302
			l3.098,7.32l7.936,0.688l-6.016,5.219l1.811,7.754L30.135,4.312z"/>
	</g>
	<g>
		<circle fill="#FF6600" cx="20.057" cy="-14.481" r="8.459"/>
		<path fill="#FFFFFF" d="M20.057-5.174c-5.133,0-9.309-4.176-9.309-9.308c0-5.133,4.176-9.31,9.309-9.31s9.309,4.177,9.309,9.31
			C29.365-9.35,25.189-5.174,20.057-5.174z M20.057-22.091c-4.195,0-7.609,3.413-7.609,7.609c0,4.194,3.414,7.607,7.609,7.607
			s7.609-3.413,7.609-7.607C27.666-18.678,24.252-22.091,20.057-22.091z"/>
	</g>
	<g>
		<g>
			<path fill="#FFFFFF" d="M17.877-14.278l1.234-4.716h4.332l-0.275,1.32h-3.035l-0.518,1.92c0.24-0.192,0.463-0.324,0.666-0.396
				c0.205-0.071,0.451-0.107,0.738-0.107c0.336,0,0.619,0.046,0.846,0.138c0.229,0.092,0.408,0.221,0.541,0.384
				c0.133,0.164,0.227,0.353,0.281,0.564c0.057,0.212,0.084,0.446,0.084,0.702c0,0.359-0.055,0.8-0.168,1.319
				c-0.223,1.072-0.578,1.872-1.061,2.4c-0.484,0.528-1.184,0.792-2.096,0.792c-0.752,0-1.291-0.132-1.619-0.396
				c-0.328-0.265-0.492-0.688-0.492-1.272c0-0.352,0.061-0.8,0.18-1.344h1.572c-0.016,0.08-0.027,0.156-0.035,0.228
				c-0.072,0.345-0.109,0.593-0.109,0.744c0,0.216,0.049,0.386,0.145,0.51s0.256,0.194,0.48,0.21c0.225,0,0.41-0.048,0.559-0.144
				c0.146-0.096,0.268-0.222,0.359-0.378s0.166-0.324,0.223-0.504c0.055-0.181,0.115-0.402,0.18-0.666l0.047-0.192
				c0.096-0.399,0.145-0.728,0.145-0.983c0-0.288-0.063-0.492-0.186-0.612c-0.125-0.12-0.307-0.18-0.547-0.18
				c-0.207,0-0.408,0.062-0.6,0.186s-0.32,0.282-0.385,0.474H17.877z"/>
		</g>
	</g>
</g>
</svg>
