<?xml version="1.0" encoding="utf-8"?>
<!-- Generator: Adobe Illustrator 16.0.0, SVG Export Plug-In . SVG Version: 6.00 Build 0)  -->
<!DOCTYPE svg PUBLIC "-//W3C//DTD SVG 1.1//EN" "http://www.w3.org/Graphics/SVG/1.1/DTD/svg11.dtd">
<svg version="1.1" id="Capa_1" xmlns="http://www.w3.org/2000/svg" xmlns:xlink="http://www.w3.org/1999/xlink" x="0px" y="0px"
	 width="52.667px" height="43.667px" viewBox="3.167 -26.5 52.667 43.667" enable-background="new 3.167 -26.5 52.667 43.667"
	 xml:space="preserve">
<path fill="#FF6600" d="M374.512,119.369c-10.177,0-18.456,8.279-18.456,18.458c0,10.178,8.279,18.457,18.456,18.457
	c10.18,0,18.46-8.279,18.46-18.457C392.972,127.648,384.691,119.369,374.512,119.369z M374.512,154.308
	c-9.086,0-16.479-7.395-16.479-16.48c0-9.087,7.393-16.481,16.479-16.481c9.088,0,16.482,7.395,16.482,16.481
	C390.994,146.913,383.6,154.308,374.512,154.308z"/>
<path fill="none" d="M253.236-108.418h24v24h-24V-108.418z"/>
<path fill="none" d="M238.903-76.167h24v24h-24V-76.167z"/>
<path d="M250.903-75.167c-4.97,0-9,4.03-9,9v7c0,1.66,1.34,3,3,3h3v-8h-4v-2c0-3.871,3.13-7,7-7s7,3.129,7,7v2h-4v8h4v1h-7v2h6
	c1.66,0,3-1.34,3-3v-10C259.903-71.138,255.874-75.167,250.903-75.167z"/>
<path fill="#FF6600" d="M276.82-80.269c-3.87,0-7,3.13-7,7c0,5.25,7,13,7,13s7-7.75,7-13C283.82-77.139,280.69-80.269,276.82-80.269
	z M276.82-70.769c-1.38,0-2.5-1.12-2.5-2.5s1.12-2.5,2.5-2.5s2.5,1.12,2.5,2.5S278.2-70.769,276.82-70.769z"/>
<path d="M231.57-81.083h2v-1h1c0.55,0,1-0.451,1-1v-3c0-0.55-0.45-1-1-1h-3v-1h4v-2h-2v-1h-2v1h-1c-0.55,0-1,0.45-1,1v3
	c0,0.55,0.45,1,1,1h3v1h-4v2h2V-81.083z M240.57-94.084h-16c-1.11,0-1.99,0.89-1.99,2l-0.01,12c0,1.109,0.89,2,2,2h16
	c1.109,0,2-0.891,2-2v-12C242.57-93.194,241.68-94.084,240.57-94.084z M240.57-80.083h-16v-12h16V-80.083z"/>
<path fill="#FF6600" d="M260.837-22.786h1.199v-0.601h0.601c0.33,0,0.6-0.271,0.6-0.6v-1.801c0-0.33-0.27-0.6-0.6-0.6h-1.8v-0.6
	h2.399v-1.2h-1.2v-0.601h-1.199v0.601h-0.601c-0.33,0-0.6,0.27-0.6,0.6v1.8c0,0.33,0.27,0.601,0.6,0.601h1.8v0.6h-2.399v1.2h1.2
	V-22.786z M266.236-30.587h-9.6c-0.666,0-1.194,0.534-1.194,1.2l-0.006,7.2c0,0.666,0.534,1.2,1.2,1.2h9.6
	c0.666,0,1.2-0.534,1.2-1.2v-7.2C267.437-30.053,266.902-30.587,266.236-30.587z M266.236-22.187h-9.6v-7.2h9.6V-22.187z"/>
<path d="M320.403-62.917h-16v2h16V-62.917z M321.403-52.917v-2l-1-5h-16l-1,5v2h1v6h10v-6h4v6h2v-6H321.403z M312.403-48.917h-6v-4
	h6V-48.917z"/>
<path d="M307.153-85.084h-2v2h2V-85.084z M311.153-85.084h-2v2h2V-85.084z M315.153-85.084h-2v2h2V-85.084z M317.153-92.084h-1v-2
	h-2v2h-8v-2h-2v2h-1c-1.11,0-1.99,0.899-1.99,2l-0.01,14c0,1.1,0.89,2,2,2h14c1.1,0,2-0.9,2-2v-14
	C319.153-91.185,318.253-92.084,317.153-92.084z M317.153-76.084h-14v-11h14V-76.084z"/>
<path d="M338.153-74.085l-1.41,1.41l5.58,5.59h-12.17v2h12.17l-5.58,5.59l1.41,1.41l8-8L338.153-74.085z"/>
<path fill="none" d="M326.153-68.417h24v24h-24V-68.417z"/>
<circle fill="#FF6600" cx="158.653" cy="35.54" r="19.866"/>
<circle fill="none" stroke="#FF6600" stroke-miterlimit="10" cx="355.521" cy="168.264" r="21.75"/>
<path fill="#333333" d="M235.903-59.376h-3v-4h-14c-1.102,0-2,0.9-2,2v11h2c0,1.66,1.34,3,3,3s3-1.34,3-3h6c0,1.66,1.34,3,3,3
	s3-1.34,3-3h2v-5L235.903-59.376z M221.903-48.876c-0.83,0-1.5-0.67-1.5-1.5s0.67-1.5,1.5-1.5s1.5,0.67,1.5,1.5
	S222.733-48.876,221.903-48.876z M235.403-57.876l1.959,2.5h-4.459v-2.5H235.403z M233.903-48.876c-0.83,0-1.5-0.67-1.5-1.5
	s0.67-1.5,1.5-1.5s1.5,0.67,1.5,1.5S234.733-48.876,233.903-48.876z"/>
<path fill="#333333" d="M418.467,182.433h-3v-4h-14c-1.102,0-2,0.9-2,2v11h2c0,1.66,1.34,3,3,3s3-1.34,3-3h6c0,1.66,1.34,3,3,3
	s3-1.34,3-3h2v-5L418.467,182.433z M404.467,192.933c-0.83,0-1.5-0.67-1.5-1.5s0.67-1.5,1.5-1.5s1.5,0.67,1.5,1.5
	S405.297,192.933,404.467,192.933z M417.967,183.933l1.959,2.5h-4.459v-2.5H417.967z M416.467,192.933c-0.83,0-1.5-0.67-1.5-1.5
	s0.67-1.5,1.5-1.5s1.5,0.67,1.5,1.5S417.297,192.933,416.467,192.933z"/>
<path fill="#FF6600" stroke="#FFFFFF" stroke-width="0.4" stroke-miterlimit="10" d="M403.834,169.129h-4.631v1.544h4.631V169.129z
	 M400.748,179.163h1.543v-4.631h-1.543V179.163z M406.945,174.062l1.096-1.096c-0.332-0.395-0.695-0.765-1.088-1.089l-1.096,1.096
	c-1.197-0.957-2.701-1.528-4.338-1.528c-3.836,0-6.947,3.11-6.947,6.947s3.104,6.946,6.947,6.946s6.947-3.109,6.947-6.946
	C408.467,176.755,407.895,175.25,406.945,174.062z M401.52,183.794c-2.988,0-5.402-2.415-5.402-5.402s2.414-5.403,5.402-5.403
	c2.986,0,5.402,2.416,5.402,5.403S404.506,183.794,401.52,183.794z"/>
<polygon fill="#333333" points="-195.246,-68.309 -199.883,-68.309 -199.883,-70.626 -197.565,-70.626 -197.565,-77.396 
	-199.561,-83.381 -208,-83.381 -208,-70.626 -206.839,-70.626 -206.839,-68.309 -210.317,-68.309 -210.317,-85.7 -197.889,-85.7 
	-195.246,-77.771 "/>
<path fill="#333333" d="M-203.36-64.83c-2.56,0-4.64-2.08-4.64-4.639c0-2.557,2.08-4.637,4.64-4.637c2.557,0,4.636,2.08,4.636,4.637
	C-198.725-66.91-200.804-64.83-203.36-64.83z M-203.36-71.787c-1.28,0-2.32,1.041-2.32,2.318c0,1.279,1.04,2.319,2.32,2.319
	c1.276,0,2.316-1.04,2.316-2.319C-201.044-70.746-202.084-71.787-203.36-71.787z"/>
<polygon fill="#333333" points="-225.39,-68.309 -230.028,-68.309 -230.028,-76.425 -227.711,-76.425 -227.711,-70.626 
	-225.39,-70.626 "/>
<polygon fill="#333333" points="-208,-68.309 -218.435,-68.309 -218.435,-70.626 -210.317,-70.626 -210.317,-88.019 
	-232.348,-88.019 -232.348,-90.337 -208,-90.337 "/>
<path fill="#333333" d="M-221.912-64.83c-2.557,0-4.637-2.08-4.637-4.639c0-2.557,2.08-4.637,4.637-4.637s4.638,2.08,4.638,4.637
	C-217.274-66.91-219.355-64.83-221.912-64.83z M-221.912-71.787c-1.279,0-2.32,1.041-2.32,2.318c0,1.279,1.041,2.319,2.32,2.319
	c1.277,0,2.319-1.04,2.319-2.319C-219.593-70.746-220.635-71.787-221.912-71.787z"/>
<rect x="-231.188" y="-85.7" fill="#333333" width="10.436" height="2.319"/>
<rect x="-230.028" y="-81.062" fill="#333333" width="6.958" height="2.319"/>
<circle fill="#FFFFFF" cx="-233.248" cy="-89.191" r="8.458"/>
<rect x="-234.476" y="-96.119" fill="#FF6600" width="2.983" height="7.489"/>
<rect x="-236.73" y="-104.006" fill="#FF6600" width="7.49" height="2.984"/>
<path fill="#FF6600" d="M-224.578-96.41l1.607-1.609l-0.214-0.256c-0.525-0.622-1.075-1.172-1.637-1.635l-0.253-0.211l-1.608,1.607
	c-1.839-1.383-4.009-2.111-6.301-2.111c-5.793,0-10.506,4.712-10.506,10.506c0,5.793,4.713,10.504,10.506,10.504
	c5.794,0,10.507-4.711,10.507-10.504C-222.477-92.411-223.205-94.578-224.578-96.41z M-232.983-82.6c-4.148,0-7.52-3.373-7.52-7.521
	c0-4.148,3.372-7.522,7.52-7.522c4.146,0,7.521,3.374,7.521,7.522C-225.463-85.973-228.838-82.6-232.983-82.6z"/>
<g>
	<path fill="#333333" d="M-200.076-25.975l-13.025-1.124l-5.093-11.995l-5.091,12.013l-13.029,1.106l9.894,8.572l-2.973,12.736
		l11.199-6.76l11.196,6.76l-2.953-12.736L-200.076-25.975z M-218.194-14.813l-6.813,4.112l1.813-7.753l-6.018-5.22l7.937-0.689
		l3.082-7.302l3.099,7.321l7.936,0.688l-6.017,5.219l1.812,7.753L-218.194-14.813z"/>
	<g>
		<circle fill="#FF6600" stroke="#FFFFFF" stroke-width="0.9" stroke-miterlimit="10" cx="-228.271" cy="-33.606" r="8.458"/>
		<g>
			<path fill="#FFFFFF" d="M-230.452-33.402l1.235-4.716h4.332l-0.275,1.32h-3.036l-0.517,1.92c0.24-0.192,0.463-0.324,0.666-0.396
				c0.204-0.072,0.45-0.108,0.738-0.108c0.336,0,0.618,0.046,0.846,0.138c0.229,0.092,0.408,0.22,0.54,0.384
				c0.133,0.164,0.227,0.352,0.282,0.564c0.056,0.212,0.084,0.446,0.084,0.702c0,0.36-0.056,0.8-0.168,1.32
				c-0.224,1.072-0.578,1.872-1.062,2.4c-0.484,0.528-1.183,0.792-2.095,0.792c-0.752,0-1.292-0.132-1.619-0.396
				c-0.328-0.264-0.492-0.688-0.492-1.272c0-0.352,0.06-0.8,0.18-1.344h1.572c-0.017,0.08-0.028,0.156-0.036,0.228
				c-0.072,0.344-0.108,0.592-0.108,0.744c0,0.216,0.048,0.386,0.145,0.51c0.096,0.124,0.256,0.194,0.479,0.21
				c0.225,0,0.41-0.048,0.559-0.144c0.147-0.096,0.268-0.222,0.359-0.378c0.092-0.156,0.166-0.324,0.223-0.504
				c0.056-0.18,0.115-0.402,0.18-0.666l0.048-0.192c0.096-0.4,0.145-0.728,0.145-0.984c0-0.288-0.063-0.492-0.187-0.612
				s-0.306-0.18-0.546-0.18c-0.208,0-0.408,0.062-0.6,0.186c-0.192,0.124-0.32,0.282-0.385,0.474H-230.452z"/>
		</g>
	</g>
</g>
<g>
	<g>
		<path fill="#333333" d="M-207.973,23.408l-2.479-2.998c-0.5-0.588-1.23-0.963-2.07-0.963h-21.404c-0.838,0-1.568,0.375-2.049,0.98
			l-2.48,2.98c-0.52,0.623-0.82,1.408-0.82,2.283v22.295c0,1.962,1.586,3.567,3.566,3.567h24.971c1.963,0,3.568-1.605,3.568-3.567
			V25.691C-207.17,24.816-207.473,24.031-207.973,23.408z M-223.223,31.041l9.811,9.811h-6.244v3.568h-7.135v-3.568h-6.242
			L-223.223,31.041z M-235.494,23.016l1.463-1.785h21.402l1.66,1.785H-235.494z"/>
	</g>
	<g>
		<g>
			<g>
				<circle fill="#FF6600" cx="-236.046" cy="24.858" r="10.239"/>
				<path fill="#FFFFFF" d="M-236.045,35.641c-5.947,0-10.785-4.837-10.785-10.782c0-5.946,4.837-10.784,10.785-10.784
					c5.945,0,10.783,4.838,10.783,10.784C-225.262,30.804-230.1,35.641-236.045,35.641z M-236.045,15.164
					c-5.346,0-9.695,4.35-9.695,9.694s4.349,9.692,9.695,9.692s9.693-4.348,9.693-9.692S-230.699,15.164-236.045,15.164z"/>
			</g>
		</g>
		<path fill="#FFFFFF" d="M-241.602,24.857c0,1.365,0.563,2.593,1.457,3.482l-1.457,1.457h3.703v-3.705l-1.383,1.384
			c-0.666-0.673-1.084-1.593-1.084-2.618c0-1.611,1.029-2.981,2.467-3.487v-1.29C-240.027,20.629-241.602,22.555-241.602,24.857z
			 M-236.662,27.945h1.234V26.71h-1.234V27.945z M-230.49,19.92h-3.703v3.703l1.383-1.383c0.668,0.673,1.086,1.593,1.086,2.617
			c0,1.611-1.031,2.982-2.469,3.488v1.291c2.129-0.551,3.703-2.477,3.703-4.779c0-1.363-0.561-2.592-1.457-3.481L-230.49,19.92z
			 M-236.662,25.476h1.234v-3.704h-1.234V25.476z"/>
	</g>
</g>
<g>
	<g>
		<g>
			<circle fill="#FF6600" cx="-47.735" cy="-15.716" r="10.239"/>
			<path fill="#FFFFFF" d="M-47.734-4.934c-5.947,0-10.785-4.837-10.785-10.782c0-5.946,4.838-10.784,10.785-10.784
				c5.945,0,10.783,4.838,10.783,10.784C-36.951-9.771-41.789-4.934-47.734-4.934z M-47.734-25.41c-5.346,0-9.695,4.35-9.695,9.694
				s4.35,9.692,9.695,9.692s9.693-4.348,9.693-9.692S-42.389-25.41-47.734-25.41z"/>
		</g>
	</g>
	<path fill="#FFFFFF" d="M-53.291-15.717c0,1.365,0.563,2.593,1.457,3.482l-1.457,1.457h3.703v-3.705l-1.383,1.384
		c-0.666-0.673-1.084-1.593-1.084-2.618c0-1.611,1.029-2.981,2.467-3.487v-1.29C-51.717-19.945-53.291-18.02-53.291-15.717z
		 M-48.352-12.629h1.234v-1.235h-1.234V-12.629z M-42.18-20.654h-3.703v3.703l1.383-1.383c0.668,0.673,1.086,1.593,1.086,2.617
		c0,1.611-1.031,2.982-2.469,3.488v1.291c2.129-0.551,3.703-2.477,3.703-4.779c0-1.363-0.561-2.592-1.457-3.481L-42.18-20.654z
		 M-48.352-15.099h1.234v-3.704h-1.234V-15.099z"/>
</g>
<g>
	<g>
		<g>
			<path fill="#FF6600" d="M22.409-2.843c-3.383,0-6.806-1.259-6.806-3.666c0-2.406,3.423-3.666,6.806-3.666
				c3.384,0,6.809,1.26,6.809,3.666C29.218-4.103,25.793-2.843,22.409-2.843z M22.409-8.08c-3.062,0-4.711,1.115-4.711,1.571
				c0,0.456,1.649,1.569,4.711,1.569s4.711-1.113,4.711-1.569C27.12-6.964,25.471-8.08,22.409-8.08z"/>
		</g>
		<g>
			<path fill="#FF6600" d="M22.409,1.346c-3.383,0-6.806-1.261-6.806-3.667v-4.188h2.095v4.188c0,0.457,1.649,1.573,4.711,1.573
				s4.711-1.117,4.711-1.573v-4.188h2.098v4.188C29.218,0.085,25.793,1.346,22.409,1.346z"/>
		</g>
		<g>
			<path fill="#FF6600" d="M22.409,5.532c-3.383,0-6.806-1.257-6.806-3.663v-4.191h2.095V1.87c0,0.456,1.649,1.569,4.711,1.569
				S27.12,2.325,27.12,1.87v-4.191h2.098V1.87C29.218,4.275,25.793,5.532,22.409,5.532z"/>
		</g>
		<g>
			<path fill="#FF6600" d="M22.409,9.723c-3.383,0-6.806-1.261-6.806-3.667V1.87h2.095v4.187c0,0.456,1.649,1.571,4.711,1.571
				s4.711-1.115,4.711-1.571V1.87h2.098v4.187C29.218,8.462,25.793,9.723,22.409,9.723z"/>
		</g>
		<g>
			<path fill="#FF6600" d="M10.893,4.488c-3.384,0-6.808-1.26-6.808-3.667c0-2.406,3.424-3.664,6.808-3.664
				c3.381,0,6.806,1.258,6.806,3.664C17.698,3.228,14.273,4.488,10.893,4.488z M10.893-0.748c-3.063,0-4.714,1.113-4.714,1.568
				c0,0.457,1.652,1.571,4.714,1.571c3.057,0,4.711-1.115,4.711-1.571C15.604,0.365,13.949-0.748,10.893-0.748z"/>
		</g>
		<g>
			<path fill="#FF6600" d="M10.893,8.675c-3.384,0-6.808-1.258-6.808-3.666V0.82h2.094v4.189c0,0.458,1.652,1.572,4.714,1.572
				c3.057,0,4.711-1.115,4.711-1.572V0.82h2.095v4.189C17.698,7.417,14.273,8.675,10.893,8.675z"/>
		</g>
		<g>
			<path fill="#FF6600" d="M10.893,12.864c-3.384,0-6.808-1.259-6.808-3.666V5.009h2.094v4.189c0,0.457,1.652,1.57,4.714,1.57
				c3.057,0,4.711-1.113,4.711-1.57V5.009h2.095v4.189C17.698,11.605,14.273,12.864,10.893,12.864z"/>
		</g>
	</g>
	<path fill="#333333" d="M53.402-8.106l-1.784-2.157c-0.346-0.436-0.871-0.706-1.478-0.706H34.738c-0.604,0-1.131,0.27-1.491,0.706
		l-1.77,2.157c-0.374,0.436-0.591,1.014-0.591,1.63V9.571c0,1.411,1.155,2.567,2.567,2.567h17.972c1.411,0,2.567-1.156,2.567-2.567
		V-6.476C53.993-7.092,53.774-7.67,53.402-8.106z M42.44,7.646l-7.062-7.061h4.493v-2.566h5.135v2.566H49.5L42.44,7.646z
		 M33.607-8.401l1.042-1.283h15.403l1.206,1.283H33.607z"/>
</g>
<g>
	<g>
		<circle fill="#FF6600" cx="29.5" cy="-13.184" r="10.239"/>
		<path fill="#FFFFFF" d="M29.501-2.402c-5.947,0-10.785-4.837-10.785-10.782c0-5.946,4.838-10.784,10.785-10.784
			c5.945,0,10.783,4.838,10.783,10.784C40.284-7.239,35.446-2.402,29.501-2.402z M29.501-22.878c-5.346,0-9.695,4.35-9.695,9.694
			s4.35,9.692,9.695,9.692s9.693-4.348,9.693-9.692S34.847-22.878,29.501-22.878z"/>
	</g>
</g>
<path fill="#FFFFFF" d="M24.105-9.255h1.962v-5.885h-1.962V-9.255z M34.896-14.65c0-0.54-0.442-0.981-0.981-0.981h-3.095
	l0.467-2.241l0.014-0.157c0-0.201-0.083-0.387-0.215-0.52l-0.521-0.515l-3.227,3.231c-0.182,0.177-0.29,0.422-0.29,0.692v4.905
	c0,0.539,0.441,0.98,0.98,0.98h4.415c0.407,0,0.755-0.245,0.901-0.599l1.481-3.457c0.044-0.113,0.069-0.231,0.069-0.358v-0.937
	l-0.005-0.005L34.896-14.65z"/>
</svg>
