<?xml version="1.0" encoding="utf-8"?>
<!-- Generator: Adobe Illustrator 16.0.0, SVG Export Plug-In . SVG Version: 6.00 Build 0)  -->
<!DOCTYPE svg PUBLIC "-//W3C//DTD SVG 1.1//EN" "http://www.w3.org/Graphics/SVG/1.1/DTD/svg11.dtd">
<svg version="1.1" id="Capa_1" xmlns="http://www.w3.org/2000/svg" xmlns:xlink="http://www.w3.org/1999/xlink" x="0px" y="0px"
	 width="52.667px" height="43.667px" viewBox="3.167 -26.5 52.667 43.667" enable-background="new 3.167 -26.5 52.667 43.667"
	 xml:space="preserve">
<g>
	<path fill-rule="evenodd" clip-rule="evenodd" fill="#333333" d="M47.102,0.408c1.656-1.649,3.301-3.288,5.016-4.995
		c-0.916,0-1.857,0-2.836,0c-0.098-0.797-0.184-1.448-0.254-2.099c-1.074-9.826-9.117-17.335-18.965-17.524
		c-7.662-0.146-13.51,3.201-17.553,9.686c-0.238,0.386-0.365,1.182-0.139,1.456c0.735,0.897,1.657,1.642,2.524,2.46
		c5.484-8.577,12.279-11.513,19.961-8.703c6.123,2.24,10.848,9.035,10.084,14.732c-0.896,0-1.826,0-2.824,0
		C43.9-2.796,45.543-1.15,47.102,0.408z M9.686-4.805c0.471,11.814,9.275,18.623,17.527,19.568
		C35.377,15.7,44.168,10.95,46.988,3.998c-0.961-0.909-1.939-1.836-2.947-2.789C39.5,10.706,29.969,12.415,23.492,9.7
		c-5.857-2.453-10.566-9.629-9.352-14.552c0.842,0,1.725,0,2.43,0c-1.641-1.646-3.281-3.293-4.757-4.774
		c-1.557,1.522-3.209,3.138-4.929,4.821C7.789-4.805,8.692-4.805,9.686-4.805z"/>
	<path fill-rule="evenodd" clip-rule="evenodd" fill="#333333" d="M47.102,0.408C45.543-1.15,43.9-2.796,42.115-4.58
		c0.998,0,1.928,0,2.824,0c0.764-5.697-3.961-12.492-10.084-14.732c-7.682-2.81-14.477,0.125-19.961,8.703
		c-0.867-0.818-1.789-1.563-2.524-2.46c-0.226-0.273-0.099-1.069,0.139-1.456c4.043-6.484,9.891-9.832,17.553-9.686
		c9.848,0.189,17.891,7.698,18.965,17.524c0.07,0.651,0.156,1.302,0.254,2.099c0.979,0,1.92,0,2.836,0
		C50.402-2.879,48.758-1.241,47.102,0.408z"/>
	<path fill-rule="evenodd" clip-rule="evenodd" fill="#333333" d="M9.686-4.805c-0.994,0-1.897,0-2.801,0
		c1.72-1.684,3.372-3.299,4.929-4.821c1.476,1.481,3.117,3.129,4.757,4.774c-0.705,0-1.588,0-2.43,0
		C12.926,0.071,17.635,7.248,23.492,9.7c6.477,2.714,16.008,1.005,20.549-8.492c1.008,0.953,1.986,1.88,2.947,2.789
		C44.168,10.95,35.377,15.7,27.213,14.764C18.961,13.818,10.157,7.009,9.686-4.805z"/>
</g>
<g>
	<path fill-rule="evenodd" clip-rule="evenodd" fill="#FF6600" d="M38.053-8.96c-2.695,1.447-5.159,2.754-7.603,4.105
		c-0.221,0.121-0.415,0.507-0.418,0.772c-0.031,2.624-0.02,5.245-0.02,8.191c2.703-1.445,5.141-2.736,7.555-4.064
		c0.23-0.126,0.46-0.498,0.464-0.757"/>
	<path fill-rule="evenodd" clip-rule="evenodd" fill="#FF6600" d="M20.988-0.751c0.01,0.361,0.489,0.828,0.866,1.041
		c1.929,1.09,3.894,2.117,5.853,3.158c0.373,0.197,0.768,0.355,1.285,0.592c0-2.786,0.019-5.33-0.022-7.871
		c-0.006-0.352-0.202-0.871-0.473-1.022c-2.408-1.352-4.85-2.637-7.549-4.086"/>
	<path fill-rule="evenodd" clip-rule="evenodd" fill="#FF6600" d="M21.31-9.749c2.679,1.45,5.1,2.78,7.55,4.058
		c0.308,0.16,0.82,0.172,1.133,0.027c0.992-0.464,1.934-1.036,3.151-1.708c-2.641-1.369-5.049-2.627-7.47-3.859
		c-0.263-0.135-0.658-0.262-0.894-0.163C23.667-10.919,22.587-10.365,21.31-9.749"/>
	<path fill-rule="evenodd" clip-rule="evenodd" fill="#FF6600" d="M26.002-11.969c2.177,1.141,4.091,2.136,6.001,3.145
		c2.018,1.068,3.713,0.736,5.314-1.091c-2.432-1.149-4.841-2.305-7.273-3.411c-0.327-0.148-0.816-0.153-1.152-0.021
		C28.003-12.996,27.156-12.532,26.002-11.969z"/>
	<path fill-rule="evenodd" clip-rule="evenodd" fill="#FF6600" d="M38.031-0.712c-0.004,0.259-0.233,0.63-0.464,0.757
		c-2.414,1.328-4.852,2.619-7.555,4.064c0-2.946-0.012-5.568,0.02-8.191c0.003-0.266,0.197-0.651,0.418-0.772
		c2.443-1.351,4.907-2.658,7.603-4.105"/>
	<path fill-rule="evenodd" clip-rule="evenodd" fill="#FF6600" d="M20.948-8.94c2.699,1.449,5.141,2.734,7.549,4.086
		c0.271,0.152,0.467,0.67,0.473,1.022c0.041,2.542,0.022,5.085,0.022,7.871c-0.518-0.237-0.912-0.395-1.285-0.592
		c-1.959-1.041-3.924-2.068-5.853-3.158c-0.377-0.213-0.856-0.679-0.866-1.041"/>
	<path fill-rule="evenodd" clip-rule="evenodd" fill="#FF6600" d="M21.31-9.749c1.277-0.616,2.357-1.17,3.471-1.645
		c0.235-0.099,0.631,0.027,0.894,0.163c2.421,1.232,4.829,2.49,7.47,3.859c-1.218,0.671-2.159,1.243-3.151,1.708
		c-0.313,0.146-0.825,0.133-1.133-0.027C26.409-6.969,23.988-8.299,21.31-9.749"/>
	<path fill-rule="evenodd" clip-rule="evenodd" fill="#FF6600" d="M26.002-11.969c1.154-0.563,2.001-1.027,2.89-1.379
		c0.336-0.131,0.825-0.127,1.152,0.021c2.433,1.106,4.842,2.262,7.273,3.411c-1.602,1.827-3.297,2.159-5.314,1.091
		C30.093-9.833,28.179-10.829,26.002-11.969z"/>
</g>
</svg>
