<?xml version="1.0" encoding="utf-8"?>
<!-- Generator: Adobe Illustrator 16.0.0, SVG Export Plug-In . SVG Version: 6.00 Build 0)  -->
<!DOCTYPE svg PUBLIC "-//W3C//DTD SVG 1.1//EN" "http://www.w3.org/Graphics/SVG/1.1/DTD/svg11.dtd">
<svg version="1.1" id="Capa_1" xmlns="http://www.w3.org/2000/svg" xmlns:xlink="http://www.w3.org/1999/xlink" x="0px" y="0px"
	 width="52.667px" height="43.667px" viewBox="3.167 -26.5 52.667 43.667" enable-background="new 3.167 -26.5 52.667 43.667"
	 xml:space="preserve">
<g>
	<path fill="#333333" d="M50.881-19.815H17.916v4.121h32.965V-19.815z M52.941,0.788v-4.121l-2.061-10.301H17.916L15.855-3.333
		v4.121h2.061v12.361H38.52V0.788h8.24v12.361h4.121V0.788H52.941z M34.398,9.028H22.037V0.788h12.361V9.028z"/>
	<g>
		<g>
			<path fill="#FF6600" stroke="#FFFFFF" stroke-miterlimit="10" d="M27.084-14.863c0,5.652-4.582,10.236-10.238,10.236
				c-5.655,0-10.241-4.584-10.241-10.236c0-5.656,4.586-10.24,10.241-10.24C22.502-25.104,27.084-20.52,27.084-14.863z"/>
			<path fill="#FFFFFF" stroke="#FFFFFF" stroke-miterlimit="10" d="M16.846-4.082c-5.948,0-10.786-4.836-10.786-10.781
				c0-5.947,4.838-10.785,10.786-10.785c5.945,0,10.783,4.838,10.783,10.785C27.629-8.918,22.791-4.082,16.846-4.082z
				 M16.846-24.559c-5.346,0-9.696,4.35-9.696,9.695c0,5.344,4.35,9.691,9.696,9.691c5.346,0,9.693-4.348,9.693-9.691
				C26.539-20.209,22.191-24.559,16.846-24.559z"/>
		</g>
	</g>
</g>
<g>
	<path fill="#FFFFFF" d="M16.84-20.303c-3.002,0-5.433,2.431-5.433,5.438c0,3.006,2.431,5.438,5.433,5.438
		c3.001,0,5.442-2.431,5.442-5.438C22.282-17.872,19.846-20.303,16.84-20.303z M16.845-10.515c-2.403,0-4.35-1.947-4.35-4.35
		s1.946-4.35,4.35-4.35s4.35,1.947,4.35,4.35S19.248-10.515,16.845-10.515z M17.389-15.985l0.576,0.576l0.576-0.576l0.576,0.576
		l0.577-0.576l-1.153-1.153L17.389-15.985z M15.148-15.985l0.576,0.576l0.576-0.576l-1.152-1.153l-1.153,1.153l0.576,0.576
		L15.148-15.985z M16.845-11.875c1.267,0,2.344-0.794,2.778-1.903h-5.557C14.501-12.668,15.578-11.875,16.845-11.875z"/>
</g>
</svg>
